<?xml version="1.0" encoding="iso-8859-1"?>
<!-- Generator: Adobe Illustrator 18.1.1, SVG Export Plug-In . SVG Version: 6.00 Build 0)  -->
<svg version="1.1" id="Capa_1" xmlns="http://www.w3.org/2000/svg" xmlns:xlink="http://www.w3.org/1999/xlink" x="0px" y="0px"
	 viewBox="0 0 16.726 16.726" style="enable-background:new 0 0 16.726 16.726;" xml:space="preserve">
<g>
	<path style="fill:#030104;" d="M8.363,0C3.744,0,0,3.744,0,8.363s3.744,8.363,8.363,8.363s8.363-3.744,8.363-8.363
		S12.982,0,8.363,0z M13.626,9.754c0,0.275-0.224,0.498-0.498,0.498H10.32v2.877c0,0.273-0.224,0.498-0.498,0.498H6.947
		c-0.275,0-0.498-0.225-0.498-0.498v-2.877h-2.85c-0.275,0-0.498-0.223-0.498-0.498V6.878c0-0.274,0.223-0.498,0.498-0.498h2.85
		V3.598c0-0.275,0.223-0.498,0.498-0.498h2.875c0.274,0,0.498,0.222,0.498,0.498V6.38h2.808c0.274,0,0.498,0.224,0.498,0.498V9.754z
		"/>
</g>
<g>
</g>
<g>
</g>
<g>
</g>
<g>
</g>
<g>
</g>
<g>
</g>
<g>
</g>
<g>
</g>
<g>
</g>
<g>
</g>
<g>
</g>
<g>
</g>
<g>
</g>
<g>
</g>
<g>
</g>
</svg>
